# xmcd
#
# Track frame offsets:
#	150
#	10714
#	21034
#	31888
#	48518
#	59737
#	69491
#	81904
#	93175
#	106725
#	120247
#	132234
#
# Disc length: 1963 seconds
#
# Revision: 0
# Processed by: cddbd v1.5.2PL0 Copyright (c) Steve Scherf et al.
# Submitted via: EasyCDDAExtractor 16.0.1.1
#
DISCID=8f07a90c
DTITLE=Connie Smith and Nat Stuckey - Young Love
DYEAR=1969
DGENRE=Country
TTITLE0=Even The Bad Times Are Good
TTITLE1=Young Love
TTITLE2=Two Together
TTITLE3=Whispering Hope
TTITLE4=I'll Share My World With You
TTITLE5=I Got You
TTITLE6=Together Alone
TTITLE7=Something Pretty
TTITLE8=Yours Love
TTITLE9=Stand Beside Me
TTITLE10=Rings Of Gold
TTITLE11=Let It Be Me (Je t'appartiens)
EXTD=
EXTT0=
EXTT1=
EXTT2=
EXTT3=
EXTT4=
EXTT5=
EXTT6=
EXTT7=
EXTT8=
EXTT9=
EXTT10=
EXTT11=
PLAYORDER=
